<svg width="50" height="45" viewBox="0 0 598 484" fill="none" xmlns="http://www.w3.org/2000/svg"> <title>Storytellers.ai Logo</title> <path fill-rule="evenodd" clip-rule="evenodd" d="M565.246 34.2112C565.246 34.2112 403.901 34.2112 371.106 34.2112C338.312 34.2112 326.291 59.3025 326.291 59.3025C326.291 59.3025 317.036 34.2112 285.182 34.2112C253.328 34.2112 31.8707 34.2112 31.8707 34.2112V450.084H232.101C254.778 450.084 271.735 425.664 271.735 425.664C271.735 425.664 286.24 450.084 314.433 450.084H565.246V34.2112ZM0.870653 0.792664C0.870653 0.792664 2.54159 146.469 2.54159 240.251C2.54159 334.034 0.226685 483.055 0.226685 483.055C0.226685 483.055 71.0766 479.711 116.227 479.711C161.378 479.711 232.101 481.084 232.101 481.084C261.112 481.084 267.853 464.48 267.853 464.48C267.853 464.48 275.004 481.084 304.627 481.084C304.627 481.084 378.388 479.285 435.33 479.285C492.272 479.285 596.014 482.352 596.014 482.352L594.279 240.251L598.003 0.792664C598.003 0.792664 525.944 4.71566 480.696 4.71566C435.448 4.71566 364.516 3.21117 364.516 3.21117C344.143 3.21117 329.532 17.4203 329.532 17.4203C329.532 17.4203 315.114 3.21117 298.558 3.21117C298.558 3.21117 207.25 4.72216 148.978 4.71566C90.9578 4.70919 0.870653 0.792664 0.870653 0.792664Z" fill="#272C37"></path> <path d="M471.239 230.301V263.432L379.877 345.064L366.792 317.739L448.161 247.037L366.792 177.019L379.163 148.67L471.239 230.301Z" fill="#272C37"></path> <path d="M250.281 367.033L329.077 100.53L347.327 117.11L268.726 383.312L250.281 367.033Z" fill="#272C37"></path> <path d="M230.808 176.336L149.201 247.037L230.808 317.398L217.723 345.064L126.361 263.432V230.301L218.436 148.67L230.808 176.336Z" fill="#272C37"></path> </svg>