<?xml version="1.0" encoding="utf-8" ?><!-- created by svgstack.com | Attribution is required. --><svg xmlns="http://www.w3.org/2000/svg" xmlns:xlink="http://www.w3.org/1999/xlink" width="1024" height="1024"><path transform="scale(2 2)" d="M296.235 77.7502C316.385 75.5917 336.835 87.7488 345.693 105.701C347.619 109.606 348.445 114.058 350.749 117.775C363.842 113.185 379.695 118.074 390.244 126.31C402.683 136.021 405.27 146.419 407.076 160.791C423.043 170.436 429.956 187.555 427.046 205.953C453.613 219.297 458.794 256.247 439.834 278.75C447.037 290.651 446.983 306.661 437.613 317.451C435.587 319.784 433.096 321.643 431.175 324.082L430.922 324.409C429.569 327.657 429.119 331.136 428.082 334.485C422.015 354.07 411.538 359.498 395.562 367.973C393.561 387.54 370.561 405.823 351.405 407.559C346.912 407.966 342.426 407.458 337.932 407.738C335.265 413.843 327.414 422.373 321.925 425.958C298.95 440.968 270.477 432.973 255.928 410.294C246.773 424.707 231.589 434.467 213.938 433.381C194.311 431.972 183.826 423.202 173.861 407.738C169.833 407.252 165.794 407.389 161.752 407.178C140.011 406.039 120.843 389.524 116.97 367.973C97.7105 362.284 83.1654 344.81 82.6697 324.409C66.2179 312.854 62.711 296.608 71.8916 278.75C69.4477 274.746 66.3645 271.254 64.4831 266.898C55.7458 246.667 63.9825 214.715 85.1417 205.953C85.3631 185.416 86.4365 172.582 105.707 159.54C106.218 154.933 106.635 150.525 108.017 146.061C114.985 123.549 139.029 110.576 161.624 117.775L163.181 113.087C177.726 70.0459 237.001 66.1204 255.928 104.747C265.765 88.8591 277.043 80.5437 296.235 77.7502ZM298.06 89.1588C281.694 90.5833 266.35 102.678 262.519 118.881C260.813 126.094 261.63 134.223 261.637 141.605L261.613 170.316C261.634 177.792 263.548 181.774 255.928 185.389C247.607 182.311 250.133 176.513 250.158 168.9L250.189 141.181C250.19 129.976 251.386 120.038 245.853 109.865C235.947 91.6521 215.21 84.5482 196.083 92.7184C169.935 103.888 175.518 126.582 168.507 129.828C165.257 131.333 161.372 129.206 158.226 128.292C139.956 122.986 121.018 134.73 117.908 153.27C125.479 148.932 150.787 142.34 149.627 156.762C146.366 162.876 142.958 159.948 137.562 159.286C121.674 157.339 117.419 170.156 116.97 182.545C114.786 185.086 110.806 187.216 107.844 184.54C105.267 182.211 106.018 177.269 105.707 174.112C98.4225 181.723 95.1182 191.181 96.5208 201.595C103.784 200.71 118.072 198.263 120.37 207.518C118.037 216.438 111.691 211.948 105.037 211.993C67.4684 212.246 58.7788 271.292 96.5208 280.857C96.4825 274.654 94.9955 267.94 102.721 266.781C110.352 269.434 107.599 278.692 107.71 285.059L107.525 285.379C105.137 289.456 101.737 292.921 99.23 296.948C87.035 316.533 93.6813 348.177 117.207 356.039C129.593 360.178 125.745 357.72 128.591 368.401C134.879 392.001 153.012 396.234 174.326 396.214C183.876 396.205 181.244 397.555 185.595 405.102C190.478 413.572 198.74 419.147 208.19 421.326C226.819 425.054 245.878 414.212 249.592 394.967C250.67 389.377 250.212 383.311 250.204 377.636L250.165 350.675C250.163 345.513 248.093 332.773 257.178 334.438C263.186 335.538 261.683 345.154 261.639 349.392L261.614 374.27C261.601 389.622 260.448 402.798 273.296 413.825C290.042 428.198 319.048 423.242 327.554 403.153C329.19 399.289 329.433 396.644 333.721 395.092C356.445 399.342 378.247 390.395 384.098 366.635C384.78 363.866 385.051 360.295 386.593 357.884C389.713 356.03 393.45 355.661 396.781 354.317C415.629 346.707 423.029 323.423 416.563 305.091C414.017 297.873 404.762 287.31 404.177 284.518C403.438 280.994 403.741 274.277 404.002 270.68C413.991 263.04 415.052 273.435 415.377 280.857C456.856 269.778 440.425 206.053 402.823 212.044C400.693 212.383 398.165 213.074 396.032 212.643C392.598 211.949 390.474 207.117 392.188 204.078C395.178 198.776 409.5 200.466 414.284 200.935C419.046 201.403 414.994 187.48 414.14 185.198C412.475 180.748 409.757 177.908 407.076 174.112C406.593 179.59 402.647 192.685 395.89 184.573C393.63 181.861 395.078 177.235 394.624 173.91C391.526 151.186 367.751 163.2 364.184 158.892C361.958 156.204 362.138 152.336 365.133 150.396C374.926 144.051 386.392 148.887 395.562 153.27C393.94 150.454 392.847 147.417 391.258 144.601C383.453 130.766 367.166 124.518 352.034 128.763C338.057 132.685 341.42 127.927 338.641 117.831C333.801 100.246 316.312 87.4503 298.06 89.1588ZM80.6673 286.824C76.306 294.988 77.5168 304.033 83.8336 310.624L83.8336 306.31C85.0101 300.705 86.6454 295.752 89.6858 290.853C86.6411 289.6 83.7178 288.053 80.6673 286.824ZM430.922 286.824C428.094 288.578 425.197 289.793 422.047 290.853C424.717 295.611 426.903 300.125 428.517 305.364C428.846 306.666 429.185 307.927 429.652 309.187C433.269 303.896 435.536 291.884 430.922 286.824Z"/><path transform="scale(2 2)" d="M398.035 234.563C413.704 231.583 406.083 274.637 370.688 275.307C366.052 275.27 362.096 272.487 363.667 267.371C365.727 260.663 391.548 268.082 393.997 244.634C394.46 240.195 393.262 236.726 398.035 234.563Z"/><path transform="scale(2 2)" d="M110.03 233.555C123.035 231.418 111.067 259.686 138.115 262.974C143.765 263.661 148.034 262.476 149.627 269.191C149.044 271.777 147.858 273.408 145.54 274.746C117.114 279.469 96.2822 239.887 110.03 233.555Z"/><path transform="scale(2 2)" d="M149.627 294.245C154.723 292.309 156.883 297.354 156.734 301.492C154.355 306.084 151.286 304.981 146.83 306.187C119.628 313.553 128.338 338.233 120.37 342.237C102.992 346.298 115.71 296.867 149.627 294.245Z"/><path transform="scale(2 2)" d="M203.75 109.834C231.08 106.367 240.349 146.59 224.117 143.327C217.093 141.915 226.605 124.082 206.868 120.724C186.628 122.675 194.417 137.87 190.26 142.638C185.585 147.998 180.477 142.86 180.391 136.216C180.219 122.925 189.543 109.879 203.75 109.834Z"/><path transform="scale(2 2)" d="M302.715 109.834C335.548 106.542 337.603 150.583 324.057 144.4C316.763 141.071 325.982 128.223 310.585 121.58C287.191 116.981 295.142 141.31 287.836 143.286C276.337 146.398 280.581 126.275 284.41 120.689C288.771 114.326 295.311 111.172 302.715 109.834Z"/><path transform="scale(2 2)" d="M348.699 293.501C365.716 292.148 383.106 300.049 392.706 314.265C396.255 319.52 408.542 348.234 392.359 344.44C388.29 342.58 389.108 337.986 388.547 334.232C385.933 316.742 370.77 305.43 353.375 304.777C347.491 304.556 336.415 307.025 341.795 295.45C344.049 294.03 346.105 293.683 348.699 293.501Z"/><path transform="scale(2 2)" d="M343.875 329.558C357.745 328.272 352.234 366.853 319.199 365.745C316.605 375.497 314.716 382.997 305.585 388.668C299.762 392.283 285.349 394.858 288.89 384.672C290.272 380.697 295.748 380.85 299.072 379.276C309.071 373.138 310.622 357.675 299.593 351.578C297.637 350.497 294.198 349.703 292.935 347.824C289.44 342.628 294.356 337.758 299.726 339.106C307.491 341.054 312.391 347.433 316.258 353.934C326.755 355.934 338.706 351.596 339.665 339.67C340.043 334.961 338.968 331.963 343.875 329.558Z"/><path transform="scale(2 2)" d="M163.964 327.269C172.012 327.764 169.16 334.631 170.051 340.089C171.745 350.479 181.689 356.58 191.752 353.815C198.956 351.836 201.388 340.306 213.611 338.53C217.279 337.997 221.053 340.254 221.412 344.154C221.849 348.916 215.403 349.912 212.274 351.592C202.084 357.063 200.906 370.036 209.411 377.493C213.229 380.964 217.362 380.193 220.614 382.769C224.563 385.898 222.211 392.202 217.226 392.421C203.29 393.033 192.956 378.411 192.476 365.745C177.48 366.093 165.431 361.749 160.139 346.189C158.061 340.08 156.126 329.775 163.964 327.269Z"/><path transform="scale(2 2)" d="M198.083 153.27C203.735 152.514 210.485 154.952 206.702 161.472C204.246 165.705 198.084 163.693 193.644 164.961C175.584 170.119 181.593 184.765 178.215 190.433C174.44 196.765 168.877 191.705 167.536 185.389C152.344 178.553 138.002 193.859 142.264 209.373C147.219 227.408 163.019 221.72 164.952 229.669L165.033 230.013C162.753 247.22 120.448 224.56 132.737 191.712C138.177 177.172 154.736 168.413 169.605 174.112C174.606 162.477 184.607 152.764 198.083 153.27Z"/><path transform="scale(2 2)" d="M308.378 153.27C323.246 151.995 334.418 159.839 341.795 172.497C374.35 165.609 395.842 205.259 370.623 228.23C363.208 234.984 353.603 236.819 343.875 236.369C343.137 235.812 342.472 235.191 341.795 234.563C335.191 220.678 356.355 230.417 366.952 215.148C377.213 200.365 363.544 179.669 343.875 183.805C344.44 188.733 341.935 194.557 336.007 191.861C331.164 189.658 332.934 181.956 331.304 177.607C324.285 158.889 307.076 169.023 303.596 159.54C304.328 156.22 304.916 154.557 308.378 153.27Z"/><path transform="scale(2 2)" d="M294.002 200.001C319.924 197.074 319.182 206.429 319.192 228.624L319.208 284.436C319.225 296.229 321.708 308.168 307.435 312.521C283.865 313.483 281.249 310.088 281.242 286.688L281.247 228.001C281.25 216.741 278.613 201.858 294.002 200.001ZM294.002 211.01C290.906 211.736 292.268 216.518 292.254 218.968L292.215 290.331C292.215 293.856 292.011 297.489 292.217 301.002C297.275 300.738 302.37 301.038 307.435 301.002L307.955 300.845C309.195 298.123 308.372 292.09 308.372 289.057L308.378 211.01C303.564 211.443 298.821 211.314 294.002 211.01Z"/><path transform="scale(2 2)" d="M206.868 200.001C225.509 199.422 236.156 197.635 241.788 217.567C246.516 234.295 250.45 251.303 254.871 268.118L259.341 284.89C261.205 291.967 262.725 296.671 258.831 303.517C249.122 320.585 225.265 315.111 220.581 296.94C220.533 296.048 220.575 295.139 220.581 294.245L209.411 294.245C205.514 309.738 192.166 320.842 177.127 310.354C163.595 300.918 170.185 284.445 173.832 271.72L187.293 224.064C190.896 211.602 191.542 202.285 206.868 200.001ZM208.19 211.01C205.64 211.279 203.697 211.877 202.053 213.954C200.359 216.094 180.63 288.199 179.774 294.421C178.82 301.361 189.259 304.933 194.322 300.59C197.45 297.907 199.778 287.525 200.931 282.75L221.375 282.75L228.61 282.75C229.953 288.277 231.149 298.228 236.148 301.356C240.484 304.07 246.112 302.764 248.734 298.351C251.341 293.963 248.465 287.596 247.344 283.084L236.798 242.678C235.664 238.26 230.852 214.182 227.448 212.248C223.984 210.28 212.379 210.823 208.19 211.01Z"/><path transform="scale(2 2)" d="M213.938 231.323C215.046 231.287 216.156 231.314 217.264 231.323C219.983 242.554 222.281 253.91 224.662 265.218C221.673 265.271 218.677 265.223 215.687 265.218C212.498 264.8 208.488 264.975 205.269 265.218C206.199 260.83 211.758 233.532 213.938 231.323Z"/></svg> 