<svg t="1712425176262" class="icon" viewBox="0 0 1024 1024" version="1.1" xmlns="http://www.w3.org/2000/svg" p-id="5459" width="200" height="200"><path d="M759.346411 875.919407 264.641309 875.919407c-9.201569-3.75758-18.671245-7.487531-23.735587-16.712637-3.225461-5.884011-5.072529-12.527314-7.538697-18.827811L233.367025 236.216933c11.43647-26.889417 19.682271-32.274054 49.446156-32.274054 27.406187 0 54.807257 0 82.21242 0l8.446369 0c0-7.343245-0.004093-13.910824 0-20.482497 0.008186-20.589944 4.925173-28.028357 23.372314-35.379789l234.561223 0c18.099217 6.867408 23.415292 20.88568 22.016433 38.877449-0.415462 5.365194-0.063445 10.788717-0.063445 16.984836 10.220782 0 19.642362-0.067538 29.059849 0.01228 25.802666 0.223081 51.645241-0.251733 77.395718 1.019213 18.647709 0.927115 30.818913 15.70161 30.818913 34.316573-0.01535 197.070354-0.01535 394.140709-0.079818 591.211063 0 4.948709-0.159636 10.004865-1.159406 14.821567-2.921539 14.078647-11.367909 23.572882-25.00244 28.373211C762.66397 874.308723 761.025657 875.17137 759.346411 875.919407L759.346411 875.919407zM653.358495 260.416078c0 7.259334 0.004093 13.851473 0 20.438495-0.016373 24.831548-10.169617 35.100426-34.748409 35.100426-70.364581 0.004093-140.729162-0.360204-211.085556 0.220011-21.137413 0.176009-35.279504-11.891841-34.108842-34.576493 0.360204-6.975878 0.056282-13.986549 0.056282-20.98187l-83.539648 0 0 558.784536 446.849164 0L736.781486 260.416078 653.358495 260.416078 653.358495 260.416078zM429.913447 204.298989l0 55.4458 166.863379 0 0-55.4458L429.913447 204.298989 429.913447 204.298989zM457.5509 679.631882l-111.51991 0L346.030991 567.860239l6.767124 0c32.44597 0 64.891939 0.144286 97.329722-0.127913 5.90857-0.048095 7.603165 1.63115 7.55507 7.546883-0.275269 32.441876-0.132006 64.883753-0.132006 97.329722L457.5509 679.631882 457.5509 679.631882zM457.091436 511.790222 346.054527 511.790222 346.054527 400.281569l111.036909 0L457.091436 511.790222 457.091436 511.790222zM373.97953 428.326299l0 55.190997 54.962799 0 0-55.190997L373.97953 428.326299 373.97953 428.326299zM513.809205 428.390767l167.07418 0 0 55.04671L513.809205 483.437477 513.809205 428.390767 513.809205 428.390767zM513.928932 596.252893l166.81119 0 0 55.298444L513.928932 651.551336 513.928932 596.252893 513.928932 596.252893zM513.928932 596.252893" fill="#fff" p-id="5460"></path></svg>