<svg t="1712424509846" class="icon" viewBox="0 0 1024 1024" version="1.1" xmlns="http://www.w3.org/2000/svg" p-id="1668" width="200" height="200">
    <path fill="#ffffff" d="M320.102 487.09h-97.496c-15.464 0-28 12.536-28 28s12.536 28 28 28h97.496c15.464 0 28-12.536 28-28s-12.536-28-28-28zM320.102 611.576h-97.496c-15.464 0-28 12.536-28 28s12.536 28 28 28h97.496c15.464 0 28-12.536 28-28s-12.536-28-28-28zM558.094 296.59h-97.495c-15.464 0-28 12.536-28 28s12.536 28 28 28h97.495c15.464 0 28-12.536 28-28s-12.536-28-28-28zM558.094 421.076h-97.495c-15.464 0-28 12.536-28 28s12.536 28 28 28h97.495c15.464 0 28-12.536 28-28s-12.536-28-28-28zM797.082 552.576h-97.495c-15.464 0-28 12.536-28 28s12.536 28 28 28h97.495c15.464 0 28-12.536 28-28s-12.536-28-28-28zM797.082 677.063h-97.495c-15.464 0-28 12.536-28 28s12.536 28 28 28h97.495c15.464 0 28-12.536 28-28s-12.536-28-28-28z" p-id="1669"></path>
    <path fill="#ffffff" d="M832.573 357.095H691.834c-13.255 0-24-10.745-24-24v-91.807a92.002 92.002 0 0 0-35.29-72.443l-63.897-50.02c-33.261-26.037-79.787-26.124-113.146-0.213l-64.589 50.169c-22.602 17.555-35.564 44.038-35.564 72.657v91.657c0 13.255-10.745 24-24 24H190.61c-50.81 0-92 41.19-92 92v361.977c0 28.719 23.281 52 52 52h232.487c0.042 0 0.083-0.003 0.125-0.003 0.042 0 0.083 0.003 0.125 0.003h13.248c30.928 0 56-25.072 56-56V650.949c0-31.629 24.56-58.303 56.154-59.794 33.817-1.596 61.838 25.455 61.838 58.928v156.989c0 30.928 25.072 56 56 56h13.248l0.126-0.003 0.126 0.003h232.487c28.719 0 52-23.281 52-52V449.095c-0.001-50.81-41.191-92-92.001-92z m36 449.977H640.086l-0.126 0.003-0.126-0.003c-7.316 0-13.248-5.931-13.248-13.248V651.319c0-62.418-49.258-114.403-111.651-116.183-64.929-1.852-118.34 50.428-118.34 114.947v143.742c0 7.316-5.931 13.248-13.248 13.248-0.042 0-0.083 0.003-0.125 0.003-0.042 0-0.083-0.003-0.125-0.003H154.61V449.095c0-19.882 16.118-36 36-36h164.737v0.238c30.928 0 56-25.072 56-56V241.438a36.001 36.001 0 0 1 13.917-28.431l64.589-50.169a35.958 35.958 0 0 1 44.274 0.083l63.898 50.02c8.775 6.87 13.809 17.202 13.809 28.348v116.044c0 30.928 25.072 56 56 56v-0.238h164.739c19.882 0 36 16.118 36 36v357.977z" p-id="1670"></path>
</svg>
