<svg t="1712425305419" class="icon" viewBox="0 0 1024 1024" version="1.1" xmlns="http://www.w3.org/2000/svg" p-id="6446" width="200" height="200"><path d="M512 0c144.768 3.84 265.344 53.888 361.728 150.272C970.112 246.698667 1020.16 367.232 1024 512c-3.84 144.768-53.888 265.344-150.272 361.728C777.301333 970.112 656.768 1020.16 512 1024c-144.768-3.84-265.344-53.888-361.728-150.272C53.888 777.301333 3.84 656.768 0 512c3.84-144.768 53.888-265.344 150.272-361.728C246.698667 53.888 367.232 3.84 512 0z m0 950.869333c124.16-3.072 227.626667-45.909333 310.272-128.597333 82.688-82.645333 125.525333-186.069333 128.597333-310.272-3.072-124.16-45.909333-227.626667-128.597333-310.272C739.626667 119.04 636.202667 76.202667 512 73.130667c-124.16 3.072-227.626667 45.909333-310.272 128.597333C119.04 284.373333 76.202667 387.797333 73.130667 512c3.072 124.16 45.909333 227.626667 128.597333 310.272C284.373333 904.96 387.797333 947.797333 512 950.869333z m-54.869333-283.434666L691.413333 512l-234.24-155.434667v310.869334z m12.586666-390.826667l284.586667 189.696c16 11.392 23.978667 26.666667 23.978667 45.696 0 19.029333-7.978667 34.304-23.978667 45.696l-284.586667 189.738667a54.698667 54.698667 0 0 1-28.586666 9.728 51.84 51.84 0 0 1-27.989334-6.869334 59.178667 59.178667 0 0 1-21.12-20.010666 52.053333 52.053333 0 0 1-8.021333-28.586667V322.304c0-10.666667 2.688-20.224 8.021333-28.586667 5.290667-8.405333 12.373333-15.061333 21.12-20.010666 8.746667-4.949333 18.090667-7.253333 27.989334-6.826667 9.898667 0.341333 19.456 3.584 28.586666 9.685333z" fill="#fff" p-id="6447"></path></svg>